<svg width="26" height="27" viewBox="0 0 26 27" fill="none" xmlns="http://www.w3.org/2000/svg">
<path d="M22.1878 17.5959L20.4003 15.8084C19.8674 15.2798 19.1482 14.9818 18.3977 14.9787C17.6472 14.9755 16.9255 15.2673 16.3881 15.7913C16.1014 16.0797 15.7232 16.2591 15.3185 16.2987C14.9138 16.3383 14.508 16.2356 14.1708 16.0083C12.8401 15.1202 11.6969 13.9792 10.8063 12.6502C10.583 12.3093 10.484 11.9018 10.526 11.4965C10.568 11.0911 10.7485 10.7126 11.037 10.4248C11.5563 9.88697 11.8444 9.16725 11.8397 8.41968C11.835 7.67211 11.5378 6.95608 11.0118 6.42485L9.22433 4.63735C8.68917 4.10403 7.96445 3.80457 7.20892 3.80457C6.4534 3.80457 5.72867 4.10403 5.19352 4.63735L4.6792 5.15247C1.99795 7.83372 2.19864 13.4708 7.77727 19.0462C11.141 22.4108 14.5267 23.8197 17.2721 23.8197C18.0803 23.8466 18.8857 23.7124 19.6415 23.4249C20.3973 23.1374 21.0883 22.7023 21.6743 22.1451L22.1894 21.63C22.7237 21.0946 23.0236 20.369 23.0233 19.6126C23.023 18.8562 22.7225 18.1309 22.1878 17.5959ZM21.0389 20.4811L20.5238 20.9962C18.4113 23.1087 13.7483 22.7228 8.92452 17.8982C4.1007 13.0735 3.71395 8.40735 5.82645 6.29485L6.33752 5.78053C6.56762 5.55126 6.87922 5.42252 7.20405 5.42252C7.52888 5.42252 7.84047 5.55126 8.07058 5.78053L9.85808 7.56803C10.084 7.79509 10.2122 8.10146 10.2154 8.42175C10.2186 8.74204 10.0965 9.0509 9.87514 9.28241C9.32612 9.83493 8.98364 10.5594 8.9051 11.3343C8.82655 12.1092 9.01671 12.8876 9.4437 13.5391C10.4557 15.0535 11.7571 16.353 13.273 17.3627C13.9225 17.7898 14.6989 17.9811 15.4724 17.9046C16.246 17.8282 16.9699 17.4886 17.5232 16.9427C17.7543 16.7187 18.064 16.5943 18.3858 16.5963C18.7076 16.5983 19.0158 16.7264 19.2441 16.9532L21.0316 18.7407C21.1468 18.8543 21.2384 18.9895 21.3012 19.1385C21.3639 19.2876 21.3966 19.4476 21.3972 19.6094C21.3979 19.7711 21.3666 19.9314 21.3051 20.081C21.2436 20.2306 21.1531 20.3666 21.0389 20.4811Z" fill="#BDBDBD"/>
</svg>
