<svg width="40" height="40" viewBox="0 0 40 40" fill="none" xmlns="http://www.w3.org/2000/svg">
<path d="M20 6.66667C15.405 6.66667 11.6666 10.405 11.6666 15H15C15 12.2433 17.2433 10 20 10C22.7566 10 25 12.2433 25 15C25 16.7817 24.2433 17.4417 22.5316 18.7583C21.895 19.2483 21.1766 19.8017 20.4883 20.4883C18.3016 22.6733 18.325 24.8283 18.3333 25V28.3333H21.6666V24.985C21.6666 24.945 21.705 23.9833 22.845 22.845C23.3783 22.3117 23.9816 21.8483 24.5633 21.4C26.33 20.04 28.3333 18.5 28.3333 15C28.3333 10.405 24.595 6.66667 20 6.66667ZM18.3333 30H21.6666V33.3333H18.3333V30Z" fill="white"/>
</svg>
