<svg width="20" height="20" viewBox="0 0 20 20" fill="none" xmlns="http://www.w3.org/2000/svg">
<path d="M16.364 3.45464C19.8787 6.96936 19.8787 12.6678 16.364 16.1825C12.8493 19.6973 7.1508 19.6973 3.6361 16.1825C0.121381 12.6678 0.121381 6.96934 3.6361 3.45464C7.15082 -0.0600765 12.8493 -0.0600765 16.364 3.45464" stroke="#BDBDBD" stroke-width="1.5" stroke-linecap="round" stroke-linejoin="round"/>
<path d="M15.307 17.0756C14.923 15.2356 12.705 13.8186 9.99999 13.8186C7.29499 13.8186 5.07699 15.2356 4.69299 17.0756" stroke="#BDBDBD" stroke-width="1.5" stroke-linecap="round" stroke-linejoin="round"/>
<path d="M12.1213 5.69728C13.2929 6.86885 13.2929 8.76835 12.1213 9.93992C10.9497 11.1115 9.05022 11.1115 7.87865 9.93992C6.70708 8.76835 6.70708 6.86885 7.87865 5.69728C9.05022 4.52571 10.9497 4.52571 12.1213 5.69728" stroke="#BDBDBD" stroke-width="1.5" stroke-linecap="round" stroke-linejoin="round"/>
</svg>
