<svg width="21" height="16" viewBox="0 0 21 16" fill="none" xmlns="http://www.w3.org/2000/svg">
<path d="M20.3975 2.15167L19.5799 1.33405L12.0061 8.90782C11.0594 9.85454 9.46721 9.85454 8.52048 8.90782L0.946713 1.37708L0.129089 2.1947L5.76638 7.832L0.129089 13.4693L0.946713 14.2869L6.58401 8.64962L7.70286 9.76847C8.39138 10.457 9.29507 10.8443 10.2418 10.8443C11.1885 10.8443 12.0922 10.457 12.7807 9.76847L13.8996 8.64962L19.5369 14.2869L20.3545 13.4693L14.7172 7.832L20.3975 2.15167Z" fill="#BDBDBD"/>
<path d="M18.8053 15.75H1.80738C0.817625 15.75 0 14.9324 0 13.9426V1.80738C0 0.817622 0.817625 0 1.80738 0H18.8053C19.7951 0 20.6127 0.817622 20.6127 1.80738V13.9426C20.6127 14.9324 19.7951 15.75 18.8053 15.75ZM1.76434 1.16188C1.42008 1.16188 1.16189 1.42008 1.16189 1.76434V13.8996C1.16189 14.2439 1.42008 14.502 1.76434 14.502H18.7623C19.1066 14.502 19.3648 14.2439 19.3648 13.8996V1.76434C19.3648 1.42008 19.1066 1.16188 18.7623 1.16188H1.76434Z" fill="#BDBDBD"/>
</svg>
