<svg width="46" height="46" viewBox="0 0 46 46" fill="none" xmlns="http://www.w3.org/2000/svg">
<path fill-rule="evenodd" clip-rule="evenodd" d="M35.2724 10.7966C33.6784 9.19211 31.7819 7.91988 29.6927 7.05361C27.6035 6.18734 25.3632 5.74425 23.1016 5.74999C13.6179 5.74999 5.89758 13.4684 5.89375 22.9559C5.89375 25.9881 6.68533 28.9474 8.18992 31.5579L5.75 40.4723L14.8714 38.0784C17.3945 39.4519 20.2212 40.1721 23.0939 40.1733H23.1016C32.5833 40.1733 40.3037 32.4549 40.3075 22.9674C40.314 20.7067 39.8724 18.4671 39.0082 16.378C38.1439 14.289 36.8742 12.392 35.2724 10.7966ZM23.1016 37.2696H23.0958C20.5342 37.2698 18.0198 36.5807 15.8163 35.2743L15.295 34.9638L9.88233 36.3841L11.3256 31.1075L10.9863 30.567C9.55418 28.287 8.79603 25.6484 8.79942 22.9559C8.80325 15.0707 15.2183 8.65566 23.1073 8.65566C24.9861 8.65149 26.8471 9.01998 28.5826 9.73983C30.318 10.4597 31.8935 11.5166 33.2178 12.8493C34.5491 14.1757 35.6044 15.7529 36.3225 17.4896C37.0407 19.2263 37.4075 21.0881 37.4018 22.9674C37.398 30.8526 30.9829 37.2696 23.1016 37.2696ZM30.9465 26.5573C30.5153 26.3407 28.4031 25.3019 28.0083 25.1582C27.6153 25.0144 27.3298 24.9435 27.0423 25.3728C26.7548 25.8022 25.9306 26.7701 25.6795 27.0576C25.4284 27.3451 25.1773 27.3796 24.748 27.1649C24.3187 26.9502 22.9329 26.496 21.2903 25.0317C20.0119 23.8912 19.1494 22.4844 18.8983 22.0532C18.6473 21.6219 18.8715 21.39 19.0881 21.1753C19.2817 20.9837 19.5174 20.6732 19.7321 20.4221C19.9468 20.171 20.0177 19.9927 20.1614 19.7052C20.3052 19.4177 20.2343 19.1667 20.125 18.952C20.0177 18.7354 19.1571 16.6194 18.7987 15.7588C18.4517 14.9251 18.0972 15.0362 17.8327 15.0247C17.5587 15.0135 17.2846 15.0084 17.0104 15.0094C16.7924 15.015 16.5779 15.0655 16.3803 15.1579C16.1828 15.2502 16.0064 15.3824 15.8623 15.5461C15.4675 15.9773 14.3578 17.0162 14.3578 19.1322C14.3578 21.2482 15.8987 23.2932 16.1134 23.5807C16.3281 23.8682 19.1456 28.2095 23.4581 30.0725C24.4854 30.5152 25.2866 30.7797 25.9095 30.9791C26.9387 31.3068 27.876 31.2589 28.6178 31.1497C29.4438 31.027 31.1612 30.1108 31.5196 29.1065C31.878 28.1022 31.878 27.2416 31.7707 27.0614C31.6633 26.8812 31.3739 26.772 30.9465 26.5573Z" fill="white"/>
</svg>
