<svg xmlns="http://www.w3.org/2000/svg" viewBox="0 0 338.11 195.07"><defs><style>.cls-1{fill:#002a46;}.cls-2{fill:#038edb;}</style></defs><g id="Capa_2" data-name="Capa 2"><g id="Capa_1-2" data-name="Capa 1"><path class="cls-1" d="M113.05,5.35a70.67,70.67,0,0,1,21.68,14.54,68,68,0,0,1,14.68,21.54,67.17,67.17,0,0,1-14.65,74.09,71.57,71.57,0,0,1-21.68,14.4,65.33,65.33,0,0,1-26.34,5.36H65.31L44.45,96.86H86.71A28.22,28.22,0,0,0,98.1,94.53a26.52,26.52,0,0,0,9.19-6.59,33.11,33.11,0,0,0,6.17-10.15,35.22,35.22,0,0,0,2.33-13,30.38,30.38,0,0,0-2.33-11.67,36.36,36.36,0,0,0-6.17-10A31.09,31.09,0,0,0,98.1,36a24.56,24.56,0,0,0-11.39-2.8H38.14V192.07H0V0H86.71A65.53,65.53,0,0,1,113.05,5.35Z"/><path class="cls-2" d="M205.58,3l40.06,80.67L216,108.37,159.21,3Zm85.61,0h46.92L268.42,131.42v63.65H228.35V131.42l-.27-.55,20.3-41.44Z"/></g></g></svg>